<?xml version="1.0" encoding="UTF-8" standalone="no"?>
<!-- Created with Inkscape (http://www.inkscape.org/) -->

<svg
   version="1.1"
   id="svg1"
   width="475.89935"
   height="489.61276"
   viewBox="0 0 475.89936 489.61276"
   xmlns="http://www.w3.org/2000/svg"
   xmlns:svg="http://www.w3.org/2000/svg">
  <defs
     id="defs1" />
  <g
     id="g1"
     transform="translate(-113.57734,-86.661584)">
    <rect
       style="display:inline;fill:none;stroke:#000000;stroke-width:8;stroke-linecap:round;stroke-linejoin:round;stroke-dasharray:none;stroke-opacity:1"
       id="rect1"
       width="414.06543"
       height="86.601921"
       x="159.26428"
       y="485.67242"
       ry="2.5576925"
       rx="0.83722192" />
    <path
       style="fill:none;stroke:#000000;stroke-width:8;stroke-linecap:round;stroke-linejoin:round;stroke-dasharray:none;stroke-opacity:1"
       d="m 171.85068,539.23226 c 0,0 65.62802,0 65.62802,0"
       id="path1"
       transform="translate(23.003635,-10.82524)" />
    <path
       style="fill:none;stroke:#000000;stroke-width:8;stroke-linecap:round;stroke-linejoin:round;stroke-dasharray:none;stroke-opacity:1"
       d="m 250.33367,540.58541 c 0,0 296.34094,0 296.34094,0"
       id="path2"
       transform="translate(23.003635,-10.82524)" />
    <path
       style="fill:none;stroke:#000000;stroke-width:8;stroke-linecap:round;stroke-linejoin:round;stroke-dasharray:none;stroke-opacity:1"
       d="m 370.76446,439.77537 c 0,0 -38.19617,36.84512 -92.19862,39.86998 -92.11816,5.15986 -134.099,-55.33544 -150.6927,-96.02591 -39.225835,-96.18819 46.1644,-170.49753 46.1644,-170.49753 l -0.15713,-40.59465 -50.06673,-66.30459 38.56491,14.8847 29.09283,-14.20813 29.09284,14.20813 43.30096,-30.44599 13.53155,29.09284 45.33069,-25.70995 25.70994,29.09283 27.73968,-16.23786 31.79914,-9.47208 -49.39016,73.07037 2.02974,6.08919 16.23786,8.11893 23.00363,-12.17839 25.70995,12.85497 34.50545,-26.38652 12.85497,26.38652 35.85861,-23.00363 21.65048,23.00363 19.62074,-10.82524 30.44599,-10.14866 -39.24149,58.18566 -1.35316,37.21177 c 0,0 59.28388,49.46704 42.62438,127.19656 -16.57895,77.35369 -93.36769,94.04427 -103.51635,94.04427 -10.14866,0 -76.23306,14.51362 -127.19657,-67.65774 -47.25088,-76.18528 23.68021,-149.52363 36.53518,-152.22994 12.85498,-2.70631 9.47209,-21.65048 -0.67657,-35.18203 -10.14867,-13.53155 -42.62438,-55.47935 -42.62438,-55.47935 v 0"
       id="path3" />
    <path
       style="fill:none;stroke:#000000;stroke-width:8;stroke-linecap:round;stroke-linejoin:round;stroke-dasharray:none;stroke-opacity:1"
       d="m 173.20383,171.85068 h 186.73539 v 40.59465 H 174.55699 Z"
       id="path4" />
    <path
       style="fill:none;stroke:#000000;stroke-width:8;stroke-linecap:round;stroke-linejoin:round;stroke-dasharray:none;stroke-opacity:1"
       d="m 388.35547,227.33004 h 151.55336 v 34.50545 H 387.00232 Z"
       id="path5" />
    <path
       style="fill:none;stroke:#000000;stroke-width:8;stroke-linecap:round;stroke-linejoin:round;stroke-dasharray:none;stroke-opacity:1"
       d="m 357.23291,214.47506 29.76941,30.44599"
       id="path6" />
    <path
       style="fill:none;stroke:#000000;stroke-width:8;stroke-linecap:round;stroke-linejoin:round;stroke-dasharray:none;stroke-opacity:1"
       d="m 316.97655,287.20714 c 0,0 -15.32949,-13.85383 -32.13743,-20.29732 -3.25211,-1.24673 -0.33829,-19.95904 -0.33829,-19.95904 l -32.13743,0.33829 v 20.29733 c 0,0 -38.90321,8.7955 -36.1969,48.71358 2.70631,39.91807 60.89198,43.97753 60.89198,43.97753 3.73652,-3.73652 30.98257,15.02767 3.72117,26.72481 -26.69681,11.45489 -43.30096,-16.57614 -43.30096,-16.57614 l -25.37165,17.59101 c 0,0 14.45639,23.73131 36.87347,28.41625 3.2613,0.68158 4.05947,19.95904 4.05947,19.95904 l 30.78427,-0.33829 v -17.9293 c 0,0 44.31583,-15.22299 39.57979,-52.43476 -4.73605,-37.21176 -72.05551,-42.62438 -72.05551,-42.62438 -11.00869,-6.35587 -3.60733,-44.22406 45.3307,-17.9293 0.44675,0.24004 20.29732,-17.92931 20.29732,-17.92931 z"
       id="path7" />
    <path
       style="fill:none;stroke:#000000;stroke-width:8;stroke-linecap:round;stroke-linejoin:round;stroke-dasharray:none;stroke-opacity:1"
       d="m 477.49553,304.20941 v -14.35237 h -25.35586 v 14.59158 c 0,0 -33.24967,10.52507 -30.85761,43.77474 2.39206,33.24968 53.10379,32.53206 56.69189,35.40253 3.58809,2.87048 14.21294,15.03713 -6.45858,21.28936 -19.99362,6.0472 -29.90078,-14.59158 -32.29284,-13.15634 -2.39206,1.43523 -20.33253,13.39555 -20.33253,13.39555 0,0 17.40987,23.69809 29.18316,23.44221 5.0497,-0.10975 3.34889,16.50523 3.34889,16.50523 l 25.35587,0.47841 V 429.7927 c 0,0 31.81443,-5.98016 33.72808,-36.83776 1.91365,-30.85761 -42.81792,-36.59856 -42.81792,-36.59856 0,0 -18.17968,-4.30572 -20.33253,-9.32905 -2.15286,-5.02333 1.31784,-29.38545 36.83776,-9.08983 4.44482,2.53971 21.28936,-15.78762 21.28936,-15.78762 z"
       id="path8" />
  </g>
</svg>
