<?xml version="1.0" encoding="UTF-8" standalone="no"?>
<!-- Created with Inkscape (http://www.inkscape.org/) -->

<svg
   width="20.76799mm"
   height="15.178269mm"
   viewBox="0 0 20.76799 15.178269"
   version="1.1"
   id="svg1"
   xml:space="preserve"
   xmlns="http://www.w3.org/2000/svg"
   xmlns:svg="http://www.w3.org/2000/svg"><defs
     id="defs1" /><g
     id="layer1"
     transform="translate(-4.6622975,-7.2795904)"><g
       id="g3"
       style="fill:none;stroke:#1a1a1a;stroke-opacity:1"
       transform="translate(-89.91539,-133.8324)"><path
         style="fill:none;stroke:#1a1a1a;stroke-width:0.5;stroke-dasharray:none;stroke-opacity:1"
         d="m 103.94264,141.36199 h 10.1919 c 0,0 0.80946,0.0736 0.84626,0.66229 0.0368,0.5887 0.11038,7.46915 0.11038,7.46915 0,0 0.11038,0.91985 -0.73588,1.2142 -0.84626,0.29435 -2.02366,0.0368 -2.02366,0.0368 l 0.18397,2.13405 -2.90672,-2.31802 -5.11434,-0.0368 c 0,0 -1.10382,0.0368 -1.25099,-0.73588 -0.14718,-0.77267 -0.14718,-6.88045 -0.14718,-6.88045 0,0 -0.11038,-1.28778 0.84626,-1.54534 z"
         id="path1" /><path
         style="fill:none;stroke:#1a1a1a;stroke-width:0.499999;stroke-dasharray:none;stroke-opacity:1"
         d="m 101.88218,144.2687 h -5.666248 c 0,0 -0.993437,-0.0736 -1.250993,1.06703 -0.257556,1.14061 -0.07359,6.77007 -0.07359,6.77007 0,0 0.357886,1.08894 1.145211,1.205 0.66017,0.0973 1.871885,-0.0276 1.871885,-0.0276 l -0.110381,2.46519 3.017096,-2.4284 4.89359,0.14718 c 0,0 1.50854,-0.55191 1.39816,-1.91328"
         id="path2" /><path
         style="fill:none;stroke:#1a1a1a;stroke-width:0.499999;stroke-dasharray:none;stroke-opacity:1"
         d="m 106.02003,144.49944 h 6.062"
         id="path3" /><path
         style="fill:none;stroke:#1a1a1a;stroke-width:0.499999;stroke-dasharray:none;stroke-opacity:1"
         d="m 106.08072,145.93972 h 6.062"
         id="path3-9" /><path
         style="fill:none;stroke:#1a1a1a;stroke-width:0.499999;stroke-dasharray:none;stroke-opacity:1"
         d="m 106.08072,147.39713 h 6.062"
         id="path3-9-1" /></g></g></svg>
