<?xml version="1.0"?><!DOCTYPE svg  PUBLIC '-//W3C//DTD SVG 1.1//EN'  'http://www.w3.org/Graphics/SVG/1.1/DTD/svg11.dtd'><svg enable-background="new 0 0 512 512" height="512px" id="Layer_1" version="1.1" viewBox="0 0 512 512" width="512px" xml:space="preserve" xmlns="http://www.w3.org/2000/svg" xmlns:xlink="http://www.w3.org/1999/xlink"><path d="M195.038,359.833c-4.729,13.1-12.547,28.837-22.993,34.741h-12.397c-8.515,0-15.421,4.9-15.421,10.944  c0,6.048,6.906,10.949,15.421,10.949h170.667c8.525,0,15.422-4.901,15.422-10.949c0-6.044-6.896-10.944-15.422-10.944h-7.914  c-10.445-5.904-18.264-21.642-22.994-34.741h87.617c38.49,0,69.795-34.108,69.795-76.036V171.562  c0-41.922-31.305-76.03-69.795-76.03H124.966c-38.479,0-69.783,34.108-69.783,76.03v112.234c0,41.928,31.304,76.036,69.783,76.036  H195.038z M294.217,394.075h-93.988c7.839-11.448,12.912-24.843,15.829-34.242h62.329  C281.305,369.232,286.377,382.627,294.217,394.075z M78.025,171.562c0-28.243,21.02-51.139,46.94-51.139h262.058  c25.932,0,46.951,22.896,46.951,51.139v112.234c0,5.529-0.836,10.843-2.326,15.83H80.342c-1.491-4.987-2.316-10.301-2.316-15.83  V171.562z M88.085,315.369h335.832c-8.602,11.904-21.91,19.572-36.893,19.572H124.966  C109.984,334.941,96.675,327.273,88.085,315.369z"/></svg>