<?xml version="1.0" encoding="UTF-8" standalone="no"?>
<!-- Created with Inkscape (http://www.inkscape.org/) -->

<svg
   version="1.1"
   id="svg1"
   width="338.54211"
   height="325.62497"
   viewBox="0 0 338.54211 325.62497"
   xmlns="http://www.w3.org/2000/svg"
   xmlns:svg="http://www.w3.org/2000/svg">
  <defs
     id="defs1" />
  <g
     id="g1"
     transform="translate(-1.7614256,-15.15698)">
    <circle
       style="fill:none;stroke:#000000;stroke-width:13.7;stroke-linecap:round;stroke-linejoin:round;stroke-dasharray:none;stroke-opacity:1"
       id="path1"
       cx="142.56694"
       cy="85.635849"
       r="63.628868" />
    <path
       style="fill:none;stroke:#000000;stroke-width:13.7;stroke-linecap:round;stroke-linejoin:round;stroke-dasharray:none;stroke-opacity:1"
       d="m 121.03837,64.585692 c 0,0 21.05015,21.528564 21.05015,21.528564 0,0 34.4457,-33.010465 34.4457,-33.010465"
       id="path2"
       transform="translate(0.47841253,1.9136501)" />
    <path
       style="fill:none;stroke:#000000;stroke-width:13.7;stroke-linecap:round;stroke-linejoin:round;stroke-dasharray:none;stroke-opacity:1"
       d="m 34.445702,165.05232 c 0,0 0,-29.18316 0,-29.18316 0,0 31.096815,0 31.096815,0"
       id="path3" />
    <path
       style="fill:none;stroke:#000000;stroke-width:13.7;stroke-linecap:round;stroke-linejoin:round;stroke-dasharray:none;stroke-opacity:1"
       d="m 5.2625378,192.32184 c 0,0 92.3336182,0 92.3336182,0"
       id="path4"
       transform="matrix(0.96841674,0,0,1,3.2987505,0)" />
    <path
       style="fill:none;stroke:#000000;stroke-width:13.7;stroke-linecap:round;stroke-linejoin:round;stroke-dasharray:none;stroke-opacity:1"
       d="m 19.614914,221.98341 c 0,0 63.150454,0 63.150454,0"
       id="path5"
       transform="translate(0.95682506,-0.95682506)" />
    <path
       style="fill:none;stroke:#000000;stroke-width:13.7;stroke-linecap:round;stroke-linejoin:round;stroke-dasharray:none;stroke-opacity:1"
       d="m 35.402527,244.94722 c 0,0 0,33.01046 0,33.01046 0,0 298.051003,0 298.051003,0"
       id="path6" />
    <path
       style="fill:none;stroke:#000000;stroke-width:13.7;stroke-linecap:round;stroke-linejoin:round;stroke-dasharray:none;stroke-opacity:1"
       d="m 235.37897,277.95768 c 0,0 0,-140.65328 0,-140.65328"
       id="path7" />
    <path
       style="fill:none;stroke:#000000;stroke-width:13.7;stroke-linecap:round;stroke-linejoin:round;stroke-dasharray:none;stroke-opacity:1"
       d="m 217.19929,134.91233 c 0,0 60.27998,0.95683 60.27998,0.95683 0,0 25.35586,53.5822 25.35586,53.5822 0,0 30.13999,23.92063 30.13999,23.92063 0,0 0,91.8552 0,91.8552 0,0 -21.05015,0.47842 -21.05015,0.47842"
       id="path8" />
    <path
       style="fill:none;stroke:#000000;stroke-width:13.7;stroke-linecap:round;stroke-linejoin:round;stroke-dasharray:none;stroke-opacity:1"
       d="m 245.90404,307.61926 c 0,0 -116.25424,0 -116.25424,0"
       id="path9" />
    <path
       style="fill:none;stroke:#000000;stroke-width:13.7;stroke-linecap:round;stroke-linejoin:round;stroke-dasharray:none;stroke-opacity:1"
       d="m 58.366329,308.09767 c 0,0 -13.395551,-0.47841 -13.395551,-0.47841 0,0 1.435237,-26.31269 1.435237,-26.31269"
       id="path10" />
    <path
       style="fill:none;stroke:#000000;stroke-width:13.7;stroke-linecap:round;stroke-linejoin:round;stroke-dasharray:none;stroke-opacity:1"
       d="m 274.13038,192.80025 c 0,0 -37.79459,0 -37.79459,0"
       id="path11" />
    <circle
       style="fill:none;stroke:#000000;stroke-width:13.7;stroke-linecap:round;stroke-linejoin:round;stroke-dasharray:none;stroke-opacity:1"
       id="path12"
       cx="94.247269"
       cy="306.66245"
       r="27.269514" />
    <circle
       style="fill:none;stroke:#000000;stroke-width:13.7;stroke-linecap:round;stroke-linejoin:round;stroke-dasharray:none;stroke-opacity:1"
       id="path12-9"
       cx="280.12167"
       cy="306.10904"
       r="27.269514" />
  </g>
</svg>
