<?xml version="1.0" encoding="UTF-8" standalone="no"?>
<svg
   viewBox="0 0 570.97693 380.62561"
   version="1.1"
   id="svg1"
   width="570.97693"
   height="380.62561"
   xmlns="http://www.w3.org/2000/svg"
   xmlns:svg="http://www.w3.org/2000/svg">
  <defs
     id="defs1" />
  <g id="g4">
    <path
       d="M 296.79,146.47 431.58,251.85 C 429.36,191.91 380.48,144 320,144 c -7.80148,0.0146 -15.58018,0.84242 -23.21,2.47 z M 343.21,365.54 208.42,260.16 C 210.65,320.09 259.53,368 320,368 c 7.80084,-0.0167 15.57899,-0.84106 23.21,-2.46 z M 320,112 c 98.65,0 189.09,55 237.93,144 -11.97216,21.90372 -26.76493,42.14292 -44,60.2 l 37.74,29.5 c 21.01184,-22.47806 38.81383,-47.7542 52.9,-75.11 4.63927,-9.177 4.63927,-20.013 0,-29.19 C 550.29,135.59 442.93,64 320,64 283.3,64 248.29,71 215.37,82.81 l 46.41,36.29 C 280.72,114.8 300.12,112 320,112 Z m 0,288 c -98.65,0 -189.08,-55 -237.93,-144 11.987808,-21.90347 26.79752,-42.13948 44.05,-60.19 l -37.74,-29.5 c -21.00855,22.4748 -38.807229,47.74764 -52.89,75.1 -4.639271,9.177 -4.639271,20.013 0,29.19 C 89.72,376.41 197.08,448 320,448 c 36.7,0 71.71,-7.05 104.63,-18.81 L 378.22,392.91 C 359.28,397.2 339.89,400 320,400 Z"
       id="path1" />
    <path
       style="fill:#000000;fill-opacity:1;stroke:#000000;stroke-width:1.265;stroke-dasharray:none;stroke-opacity:1"
       d="m 87.424111,168.84853 c 0,0 39.637329,-54.49503 134.287269,-87.632079 28.06325,-9.824974 56.25658,-5.791727 40.82879,37.063229 0,0 -82.13937,19.46487 -136.5466,77.99602 -42.326501,45.53474 -38.569459,-27.42717 -38.569459,-27.42717 z"
       id="path2" />
    <path
       style="fill:#000000;fill-opacity:1;stroke:#000000;stroke-width:1.265;stroke-dasharray:none;stroke-opacity:1"
       d="m 552.29325,344.76812 c -3.34167,3.62226 -45.841,58.79543 -128.45773,84.42427 -57.33728,-15.36348 -53.96427,-2.05622 -47.38203,-35.05454 65.61314,-21.97533 92.7756,-36.08468 137.80599,-77.86827 24.28973,-24.28973 55.65128,10.88103 38.03377,28.49854 z"
       id="path3" />
    <ellipse
       style="fill:none;fill-opacity:1;stroke:#000000;stroke-width:72.872;stroke-dasharray:none;stroke-opacity:1"
       id="path4"
       cx="320.35504"
       cy="256.00543"
       rx="109.69077"
       ry="110.81385" />
  </g>
</svg>
