<?xml version="1.0" encoding="UTF-8" standalone="no"?>
<!-- Created with Inkscape (http://www.inkscape.org/) -->

<svg
   version="1.1"
   id="svg1"
   width="675.32294"
   height="671.50171"
   viewBox="0 0 675.32294 671.50171"
   xmlns="http://www.w3.org/2000/svg"
   xmlns:svg="http://www.w3.org/2000/svg">
  <defs
     id="defs1" />
  <g
     id="g1"
     transform="translate(-2.9682507,-4.8758797)">
    <rect
       style="fill:none;stroke:#000000;stroke-width:13.2;stroke-linecap:round;stroke-linejoin:round"
       id="rect1"
       width="76.546005"
       height="174.14217"
       x="9.5682507"
       y="222.94023"
       ry="2.1988769" />
    <path
       style="fill:none;stroke:#000000;stroke-width:13.2;stroke-linecap:round;stroke-linejoin:round"
       d="M 87.071081,245.90404 H 235.37897 c 0,0 41.14347,33.48888 89.94155,90.89838 10.52508,16.26603 8.0079,61.36349 -43.05713,59.32316 -12.8625,-0.51393 -54.53903,-52.62538 -54.53903,-52.62538"
       id="path1" />
    <path
       style="fill:none;stroke:#000000;stroke-width:13.2;stroke-linecap:round;stroke-linejoin:round"
       d="m 87.071081,383.68685 20.093329,0.95682 109.07805,65.06411 327.23417,-0.95683 c 29.66158,3.8273 41.20334,-66.39424 -1.91365,-66.02093 l -221.02658,1.91365"
       id="path2" />
    <path
       style="fill:none;stroke:#000000;stroke-width:13.2;stroke-linecap:round;stroke-linejoin:round"
       d="m 611.41121,554.95854 60.27998,-1.91365 V 669.77754 H 325.32052 L 170.31486,580.79281 c -9.56825,0.95683 -27.01885,-63.34612 27.74793,-58.36633 16.31092,1.48311 142.56693,63.15046 142.56693,63.15046 h 178.92629 l -116.73266,-1.91365 c 0,0 -47.25208,-40.52719 5.74095,-66.02093 14.73392,-7.08815 156.91931,-7.6546 156.91931,-7.6546 z"
       id="path3" />
    <path
       style="fill:none;stroke:#000000;stroke-width:13.2;stroke-linecap:round;stroke-linejoin:round"
       d="m 293.74529,156.91931 80.37331,-50.71173 86.11425,53.58221 v 81.33013 l -88.0279,58.36632 -81.33013,-53.5822 z"
       id="path4" />
    <path
       style="fill:none;stroke:#000000;stroke-width:13.2;stroke-linecap:round;stroke-linejoin:round"
       d="M 186.58088,243.03356 C 173.18533,196.14914 199.22649,10.246952 363.59352,11.481901 c 198.36564,1.490392 203.80375,181.796759 201.8901,208.587869 -2.87048,20.09332 -10.52508,103.3371 -105.25077,156.9193"
       id="path5" />
  </g>
</svg>
