<?xml version="1.0" encoding="UTF-8" standalone="no"?>
<!-- Created with Inkscape (http://www.inkscape.org/) -->

<svg
   version="1.1"
   id="svg1"
   width="328.43173"
   height="328.45743"
   viewBox="0 0 328.43173 328.45742"
   xmlns="http://www.w3.org/2000/svg"
   xmlns:svg="http://www.w3.org/2000/svg">
  <defs
     id="defs1" />
  <g
     id="g1"
     transform="translate(-6.4832249,-6.8891608)">
    <path
       style="fill:#000000;stroke:#000000;stroke-width:1;stroke-linecap:round;stroke-linejoin:round;stroke-dasharray:none"
       d="m 225.63859,55.817642 c 0,0 -49.36629,-29.086399 -115.69475,3.382888 -19.430916,9.511878 21.18381,-4.358811 11.50182,23.680212 L 43.300959,123.47539 c 0,0 -13.192384,1.53765 -13.490508,-4.29515 -0.795926,-15.57229 4.315671,-79.381167 6.109718,-91.461083 0.239206,-0.837222 5.515606,-11.570271 14.621457,-5.033291 9.866129,7.082775 9.130275,14.775061 16.777834,20.615093 3.237499,2.472305 65.28973,-60.553685 163.73175,-25.033367 98.44202,35.520319 113.66502,157.642558 98.10374,198.575498 -3.75961,9.8894 -2.84262,-15.245 -32.54339,-13.69337 -3.99708,0.20882 4.91979,-28.10334 1.14898,-44.84492 -7.19647,-31.95086 -11.52087,-69.561883 -72.12195,-102.487158 z"
       id="path4" />
    <path
       style="fill:#000000;stroke:#000000;stroke-width:1;stroke-linecap:round;stroke-linejoin:round;stroke-dasharray:none"
       d="m 45.330692,138.69839 c 0,0 -25.810468,-1.16723 -29.769409,-15.223 -4.926282,-17.4902 -35.349928,120.071 58.862241,179.96961 115.911366,73.69462 200.605226,-5.41261 200.605226,-5.41261 9.95081,17.2353 26.0402,29.8453 28.75455,15.89957 5.51101,-28.31442 7.11192,-48.71331 8.45721,-87.2785 0.24879,-7.13187 -7.78064,-11.84011 -23.34192,-4.05947 -15.56128,7.78065 -60.05909,33.02197 -64.27486,35.85861 -19.08746,12.84331 11.50067,21.09406 11.8401,20.9739 4.12178,-1.45914 -58.53287,41.96631 -126.51999,2.70631 C 24.20063,232.61933 45.330692,145.8346 45.330692,138.69839 Z"
       id="path5" />
    <path
       style="fill:#000000;stroke:#000000;stroke-width:1;stroke-linecap:round;stroke-linejoin:round;stroke-dasharray:none"
       d="M 316.97655,203.64982 Z"
       id="path6" />
    <path
       style="fill:#000000;stroke:#000000;stroke-width:1;stroke-linecap:round;stroke-linejoin:round;stroke-dasharray:none"
       d="m 204.3264,131.93261 8.45722,-24.0185 c 0,0 -13.8118,-10.268266 -29.0348,-9.929977 l -0.0384,-12.587496 c 0,0 -12.02011,-20.21293 -23.62162,-0.598016 l -1e-5,14.11317 c 0,0 -46.79751,9.337719 -29.00376,57.529109 2.00325,5.42548 13.70411,16.03952 26.27638,19.68408 20.18831,5.85235 45.37322,25.1909 19.89043,39.87828 -12.14209,6.99827 -32.91312,-2.58262 -44.01395,-10.04667 -1.33162,-0.89536 -3.4576,17.86814 -9.08984,23.68142 -2.50921,2.58986 25.02235,13.36988 33.96729,12.91715 0.15113,-0.008 0.48696,14.35837 0.56811,14.53177 0.90712,1.93839 12.10268,13.95968 22.27961,1.93242 2.51298,-2.96989 1.79053,-17.42102 1.79053,-17.42102 0,0 36.23125,-8.20308 34.07839,-45.51926 -2.15285,-37.31618 -46.87279,-40.04752 -55.60696,-50.88087 -6.79576,-8.42906 -6.92654,-36.6978 35.16332,-16.98364 z"
       id="path7" />
  </g>
</svg>
